<svg xmlns="http://www.w3.org/2000/svg" width="48" height="48" viewBox="0 0 24 24" fill="#0A66C2">
  <path d="M20.447 20.452H17.21v-5.569c0-1.328-.027-3.037-1.852-3.037-1.853 0-2.136 1.445-2.136 2.939v5.667H9.001V9h3.112v1.561h.045c.434-.82 1.494-1.684 3.073-1.684 3.288 0 3.894 2.164 3.894 4.977v6.598zM5.337 7.433a1.804 1.804 0 110-3.608 1.804 1.804 0 010 3.608zM6.813 20.452H3.86V9h2.953v11.452zM22.225 0H1.771C.792 0 0 .774 0 1.729v20.542C0 23.227.792 24 1.771 24h20.451C23.2 24 24 23.227 24 22.271V1.73C24 .774 23.2 0 22.222 0h.003z"></path>
</svg>
